<svg xmlns="http://www.w3.org/2000/svg" width="360" height="140" viewBox="0 0 360 140" fill="none">
  <rect width="360" height="140" fill="none"/>
  <path d="M70 70c0-26 20-46 46-46h36c26 0 46 20 46 46s-20 46-46 46h-36c-26 0-46-20-46-46z" stroke="#111" stroke-width="6"/>
  <path d="M206 70c0-26 20-46 46-46h36c26 0 46 20 46 46s-20 46-46 46h-36c-26 0-46-20-46-46z" stroke="#111" stroke-width="6"/>
  <path d="M198 68h10" stroke="#111" stroke-width="6" stroke-linecap="round"/>
  <path d="M60 64l-32-10" stroke="#111" stroke-width="6" stroke-linecap="round"/>
  <path d="M300 64l32-10" stroke="#111" stroke-width="6" stroke-linecap="round"/>
</svg>
